# xmcd CD database file
#
# Track frame offsets:
#	150
#	11767
#	23017
#	32985
#	44275
#	56767
#	66565
#	76617
#	86297
#	99972
#	113490
#	125205
#	135185
#	146102
#	160787
#	173235
#
# Disc length: 2534 seconds
#
# Revision: 0
# Processed by: cddbd v1.5.2PL0 Copyright (c) Steve Scherf et al.
# Submitted via: CDex 1.51
#
DISCID=cb09e410
DTITLE=Alex Vargas - Smooth As Ice
DYEAR=2012
DGENRE=Jump Blues
TTITLE0=Let the daddy hold you
TTITLE1=Thanks Mr. Postman
TTITLE2=Done got over you
TTITLE3=Lonely moon
TTITLE4=Prisoner of love
TTITLE5=Voodoo workin'
TTITLE6=Burnt toast
TTITLE7=Welcome home darling
TTITLE8=Summertime
TTITLE9=Mean old Frisco
TTITLE10=Bad mouthing
TTITLE11=Go home letter
TTITLE12=Crawfish
TTITLE13=Lonely traveling
TTITLE14=Midnight dreams
TTITLE15=Watch your step
EXTD=YEAR: 2012
EXTT0=
EXTT1=
EXTT2=
EXTT3=
EXTT4=
EXTT5=
EXTT6=
EXTT7=
EXTT8=
EXTT9=
EXTT10=
EXTT11=
EXTT12=
EXTT13=
EXTT14=
EXTT15=
PLAYORDER=
